<svg width="2037" height="674" xmlns="http://www.w3.org/2000/svg" xmlns:xlink="http://www.w3.org/1999/xlink" overflow="hidden"><defs><clipPath id="clip0"><rect x="21" y="313" width="2037" height="674"/></clipPath></defs><g clip-path="url(#clip0)" transform="translate(-21 -313)"><rect x="23.4999" y="315.5" width="368" height="669" stroke="#000000" stroke-width="4.58333" stroke-miterlimit="8" fill="#FFFFFF"/><text font-family="Times New Roman,Times New Roman_MSFontService,sans-serif" font-weight="400" font-size="50" transform="matrix(6.12323e-17 -1 1 6.12323e-17 113.139 863)">Webbrowser (Client)</text><rect x="195" y="361" width="141" height="566" fill="#4472C4"/><text fill="#FFFFFF" font-family="Times New Roman,Times New Roman_MSFontService,sans-serif" font-weight="400" font-size="50" transform="matrix(6.12323e-17 -1 1 6.12323e-17 288.157 871)">HTTP + DOM Engine</text><rect x="562" y="468" width="621" height="286" fill="#4472C4"/><text fill="#FFFFFF" font-family="Times New Roman,Times New Roman_MSFontService,sans-serif" font-weight="400" font-size="50" transform="matrix(1 0 0 1 665.595 542)">HTTP: GET / POST</text><rect x="1354.5" y="315.5" width="701" height="669" stroke="#000000" stroke-width="4.58333" stroke-miterlimit="8" fill="#FFFFFF"/><text font-family="Times New Roman,Times New Roman_MSFontService,sans-serif" font-weight="400" font-size="50" transform="matrix(6.12323e-17 -1 1 6.12323e-17 2010.78 755)">Appserver</text><rect x="1416" y="361" width="141" height="566" fill="#4472C4"/><text fill="#FFFFFF" font-family="Times New Roman,Times New Roman_MSFontService,sans-serif" font-weight="400" font-size="50" transform="matrix(6.12323e-17 -1 1 6.12323e-17 1509.14 854)">HTML <tspan font-size="50" x="156" y="-9.55225e-15">Webfrontend</tspan></text><path d="M361.78 644.844 1389.57 644.844 1389.57 655.157 361.78 655.156ZM366.937 665.469 336 650 366.937 634.531ZM1384.42 634.532 1415.36 650 1384.42 665.469Z"/><rect x="896.5" y="602.5" width="228" height="94.9999" stroke="#000000" stroke-width="3.4375" stroke-linejoin="round" stroke-miterlimit="10" fill="#FFFFFF"/><text font-family="Times New Roman,Times New Roman_MSFontService,sans-serif" font-weight="400" font-size="50" transform="matrix(1 0 0 1 938.231 668)">HTML</text><rect x="1588" y="362" width="142" height="566" fill="#4472C4"/><text fill="#FFFFFF" font-family="Times New Roman,Times New Roman_MSFontService,sans-serif" font-weight="400" font-size="50" transform="matrix(6.12323e-17 -1 1 6.12323e-17 1681.97 786)">Businesslogik</text><rect x="1761" y="361" width="142" height="566" fill="#4472C4"/><text fill="#FFFFFF" font-family="Times New Roman,Times New Roman_MSFontService,sans-serif" font-weight="400" font-size="50" transform="matrix(6.12323e-17 -1 1 6.12323e-17 1854.95 771)">Data<tspan font-size="50" x="95" y="-5.81707e-15">-</tspan><tspan font-size="50" x="112" y="-6.85802e-15">Access</tspan></text></g></svg>