<svg width="1762" height="1148" xmlns="http://www.w3.org/2000/svg" xmlns:xlink="http://www.w3.org/1999/xlink" overflow="hidden"><defs><clipPath id="clip0"><rect x="127" y="75" width="1762" height="1148"/></clipPath></defs><g clip-path="url(#clip0)" transform="translate(-127 -75)"><rect x="127" y="76" width="1762" height="289" fill="#4472C4"/><text fill="#FFFFFF" font-family="Times New Roman,Times New Roman_MSFontService,sans-serif" font-weight="700" font-size="55" transform="matrix(1 0 0 1 815.166 145)">Client / Browser<tspan font-family="Arial,Arial_MSFontService,sans-serif" font-weight="400" font-size="55" x="-351.771" y="132">•</tspan><tspan font-weight="400" font-size="55" x="-289.896" y="132">HTML + JS + CSS kompiliert aus </tspan><tspan font-weight="400" font-size="55" x="476.667" y="132">React</tspan><tspan font-weight="400" font-size="55" x="602.708" y="132">-</tspan><tspan font-weight="400" font-size="55" x="621.042" y="132">Code</tspan></text><rect x="127" y="428" width="850" height="366" fill="#4472C4"/><text fill="#FFFFFF" font-family="Times New Roman,Times New Roman_MSFontService,sans-serif" font-weight="700" font-size="55" transform="matrix(1 0 0 1 474.741 498)">Vercel<tspan font-family="Arial,Arial_MSFontService,sans-serif" font-weight="400" font-size="55" x="-314.806" y="132">•</tspan><tspan font-weight="400" font-size="55" x="-252.931" y="132">CI / CD des </tspan><tspan font-weight="400" font-size="55" x="22.0687" y="132">Frontends</tspan><tspan font-family="Arial,Arial_MSFontService,sans-serif" font-weight="400" font-size="55" x="-314.806" y="198">•</tspan><tspan font-weight="400" font-size="55" x="-252.931" y="198">Ausliefern der statischen </tspan><tspan font-weight="400" font-size="55" x="-252.931" y="265">Dateien (HTML, JS, CSS)</tspan></text><rect x="1039" y="428" width="850" height="366" fill="#4472C4"/><text fill="#FFFFFF" font-family="Times New Roman,Times New Roman_MSFontService,sans-serif" font-weight="700" font-size="55" transform="matrix(1 0 0 1 1362.74 498)">Firebase<tspan font-family="Arial,Arial_MSFontService,sans-serif" font-weight="400" font-size="55" x="-290.469" y="132">•</tspan><tspan font-weight="400" font-size="55" x="-228.594" y="132">Authentifizierung</tspan><tspan font-family="Arial,Arial_MSFontService,sans-serif" font-weight="400" font-size="55" x="-290.469" y="198">•</tspan><tspan font-weight="400" font-size="55" x="-228.594" y="198">Speichern der dynamischen </tspan><tspan font-weight="400" font-size="55" x="-228.594" y="264">Daten</tspan></text><rect x="127" y="857" width="850" height="366" fill="#4472C4"/><text fill="#FFFFFF" font-family="Times New Roman,Times New Roman_MSFontService,sans-serif" font-weight="700" font-size="55" transform="matrix(1 0 0 1 461.288 927)">GitHub<tspan font-family="Arial,Arial_MSFontService,sans-serif" font-weight="400" font-size="55" x="-301.354" y="132">•</tspan><tspan font-weight="400" font-size="55" x="-239.479" y="132">Quellcodeverwaltung</tspan><tspan font-family="Arial,Arial_MSFontService,sans-serif" font-weight="400" font-size="55" x="-301.354" y="198">•</tspan><tspan font-weight="400" font-size="55" x="-239.479" y="198">Automatisches Testen</tspan></text><path d="M3.4375-1.95898e-05 3.43773 40.4105-3.43727 40.4106-3.4375 1.95898e-05ZM13.7502 35.8272 0.000360892 63.3272-13.7498 35.8273Z" transform="matrix(1 0 0 -1 552.5 857.827)"/><path d="M3.4375-1.95899e-05 3.43773 40.4102-3.43727 40.4102-3.4375 1.95899e-05ZM13.7502 35.8268 0.000360892 63.3269-13.7498 35.827Z" transform="matrix(1 0 0 -1 552.5 428.827)"/><path d="M3.43763 22.9166 3.43773 40.4102-3.43727 40.4102-3.43737 22.9167ZM-13.7498 27.5001 0 0 13.7502 27.4999ZM13.7502 35.8268 0.000360892 63.3269-13.7498 35.827Z" transform="matrix(1 0 0 -1 1464.5 428.827)"/></g></svg>